<svg width="627" height="756" xmlns="http://www.w3.org/2000/svg" fill="none">
 <defs>
  <clipPath id="clip0_103_35">
   <rect id="svg_1" fill="white" height="755.39" width="1600"/>
  </clipPath>
 </defs>
 <g>
  <title>Layer 1</title>
  <g id="svg_2" clip-path="url(#clip0_103_35)">
   <path id="svg_3" fill="#3D8252" d="m472.696,385.792c-3.864,-6.415 -8.699,-12.308 -14.05,-17.656c-46.608,-46.586 -122.05,-46.789 -168.91,-0.607l-13.721,13.713c-27.784,27.772 -27.784,72.797 0,100.568c27.785,27.77 72.832,27.77 100.617,0l96.064,-96.018z"/>
   <path id="svg_4" fill="#5AC379" d="m534.872,663.745c99.076,-99.026 117.858,-247.915 56.353,-365.848c-6.897,-13.22 -16.239,-24.964 -26.475,-35.812c-46.807,-46.79 -122.707,-46.79 -169.52,0l-105.494,105.444c46.86,-46.182 122.302,-45.979 168.91,0.607c10.442,10.437 18.918,22.947 22.049,37.371c11.937,54.981 -3.724,114.977 -46.438,157.671c-66.682,66.649 -174.796,66.649 -241.478,0c-66.683,-66.65 -66.683,-174.712 0,-241.362l120.738,-120.681c55.569,-55.541 55.569,-145.5929 0,-201.135l-212.208,212.106l0.207,0.207c-1.197,1.087 -2.4119,2.214 -3.6447,3.38c-1.8614,1.761 -3.763,3.611 -5.7089,5.556c-122.2513,122.192 -122.2508,320.306 0,442.496c122.2506,122.194 320.4596,122.194 442.7096,0z"/>
   <path id="svg_5" fill="#5AC379" d="m751.364,310.456c0,-16.003 5.217,-28.526 15.652,-37.571c10.668,-9.277 27.016,-13.915 49.044,-13.915c14.842,0 28.869,1.971 42.087,5.914l0,23.655c-13.68,-4.406 -27.712,-6.609 -42.087,-6.609c-14.376,0 -24.696,2.551 -30.957,7.653c-6.027,4.87 -9.043,12.291 -9.043,22.264l0,133.933c0,18.785 11.13,28.178 33.391,28.178c14.609,0 25.043,-2.435 31.304,-7.306l0,-86.969l24.696,0l0,102.624c-16.462,9.277 -34.435,13.915 -53.913,13.915c-40.114,0 -60.174,-16.466 -60.174,-49.399l0,-136.367zm263.736,-66.445l24.35,0l0,60.531c13.45,-5.798 26.9,-8.697 40.35,-8.697c13.68,0 24.69,3.942 33.04,11.828c8.58,7.885 12.87,19.249 12.87,34.091l0,152.719l-24.7,0l0,-150.283c0,-16.931 -8.46,-25.395 -25.39,-25.395c-11.82,0 -23.76,2.898 -35.82,8.697l0,166.981l-24.7,0l0,-250.472zm272.41,194.116l0,10.436c0,9.277 2.2,16.118 6.61,20.525c4.4,4.406 12.75,6.609 25.04,6.609c12.29,0 23.89,-4.522 34.78,-13.567l0,-65.053l-39.65,11.132c-10.43,3.015 -17.5,6.725 -21.22,11.132c-3.71,4.407 -5.56,10.669 -5.56,18.786zm31.3,-143.326c39.42,0 59.13,16.814 59.13,50.442l0,149.24l-23.65,0l0,-14.263c-11.83,10.436 -25.97,15.654 -42.43,15.654c-32.24,0 -48.35,-15.886 -48.35,-47.659l0,-11.132c0,-24.119 14.03,-40.122 42.09,-48.007l48.69,-13.567l0,-30.266c-0.23,-9.508 -2.9,-16.466 -8,-20.872c-5.1,-4.407 -15.42,-6.61 -30.96,-6.61c-15.3,0 -29.45,2.319 -42.43,6.958l0,-23.308c13.22,-4.407 28.52,-6.61 45.91,-6.61zm216.98,-10.088c0,-15.075 4.06,-26.671 12.17,-34.788c8.12,-8.349 20.06,-12.524 35.83,-12.524c5.56,0 10.78,0.348 15.65,1.044l0,21.221c-3.48,-0.928 -8.12,-1.392 -13.91,-1.392c-16.7,0 -25.05,8.697 -25.05,26.091l0,12.175l36.87,0l0,21.221l-36.87,0l0,176.722l-24.69,0l0,-176.722l-19.83,0l0,-21.221l19.83,0l0,-11.827z"/>
  </g>
 </g>
</svg>