<svg xmlns="http://www.w3.org/2000/svg" version="1.1" xmlns:xlink="http://www.w3.org/1999/xlink" xmlns:svgjs="http://svgjs.dev/svgjs" width="627" height="756"><svg width="627" height="756" xmlns="http://www.w3.org/2000/svg" fill="none"><defs><clipPath id="SvgjsClipPath1122"><path fill="#fff" d="M0 0h1600v755.39H0z"></path></clipPath></defs><g clip-path="url(#a)"><path fill="#3D8252" d="M472.696 385.792c-3.864-6.415-8.699-12.308-14.05-17.656-46.608-46.586-122.05-46.789-168.91-.607l-13.721 13.713c-27.784 27.772-27.784 72.797 0 100.568 27.785 27.77 72.832 27.77 100.617 0z"></path><path fill="#5AC379" d="M534.872 663.745c99.076-99.026 117.858-247.915 56.353-365.848-6.897-13.22-16.239-24.964-26.475-35.812-46.807-46.79-122.707-46.79-169.52 0L289.736 367.529c46.86-46.182 122.302-45.979 168.91.607 10.442 10.437 18.918 22.947 22.049 37.371 11.937 54.981-3.724 114.977-46.438 157.671-66.682 66.649-174.796 66.649-241.478 0-66.683-66.65-66.683-174.712 0-241.362l120.738-120.681c55.569-55.541 55.569-145.593 0-201.135L101.309 212.106l.207.207a245 245 0 0 0-3.645 3.38 290 290 0 0 0-5.709 5.556c-122.25 122.192-122.25 320.306 0 442.496 122.251 122.194 320.46 122.194 442.71 0"></path></g></svg><style>@media (prefers-color-scheme: light) { :root { filter: none; } }
@media (prefers-color-scheme: dark) { :root { filter: none; } }
</style></svg>